HIERARCHY
ROOT hip
{
	OFFSET 0.000000 0.000000 0.000000 
	CHANNELS 6 Xposition Yposition Zposition Xrotation Zrotation Yrotation
	JOINT abdomen
	{
		OFFSET 0.000000 3.402643 0.000000 
		CHANNELS 3 Xrotation Zrotation Yrotation
		JOINT chest
		{
			OFFSET 0.000000 8.438565 -0.680529 
			CHANNELS 3 Xrotation Zrotation Yrotation
			JOINT neck
			{
				OFFSET 0.000000 10.207942 -0.272212 
				CHANNELS 3 Xrotation Zrotation Yrotation
				JOINT head
				{
					OFFSET 0.000000 3.130431 0.000000 
					CHANNELS 3 Xrotation Zrotation Yrotation
					End Site
					{
						OFFSET 0.000000 3.130435 0.000000 
					}
				}
			}
			JOINT lCollar
			{
				OFFSET 3.470700 6.669187 -0.816635 
				CHANNELS 3 Yrotation Zrotation Xrotation
				JOINT lShldr
				{
					OFFSET 3.198488 0.000000 0.000000 
					CHANNELS 3 Zrotation Yrotation Xrotation
					JOINT lForeArm
					{
						OFFSET 10.139888 0.000000 0.000000 
						CHANNELS 3 Yrotation Zrotation Xrotation
						JOINT lHand
						{
							OFFSET 8.370511 0.000000 0.000000 
							CHANNELS 3 Zrotation Yrotation Xrotation
							End Site
							{
								OFFSET 4.083176 0.000000 0.000000 
							}
						}
					}
				}
			}
			JOINT rCollar
			{
				OFFSET -3.470700 6.669187 -0.816635 
				CHANNELS 3 Yrotation Zrotation Xrotation
				JOINT rShldr
				{
					OFFSET -3.198488 0.000000 0.000000 
					CHANNELS 3 Zrotation Yrotation Xrotation
					JOINT rForeArm
					{
						OFFSET -10.139888 0.000000 0.000000 
						CHANNELS 3 Yrotation Zrotation Xrotation
						JOINT rHand
						{
							OFFSET -8.370511 0.000000 0.000000 
							CHANNELS 3 Zrotation Yrotation Xrotation
							End Site
							{
								OFFSET -4.083176 0.000000 0.000000 
							}
						}
					}
				}
			}
		}
	}
	JOINT lThigh
	{
		OFFSET 5.308129 -1.633274 1.361059 
		CHANNELS 3 Xrotation Zrotation Yrotation
		JOINT lShin
		{
			OFFSET -2.041588 -20.007561 0.000000 
			CHANNELS 3 Xrotation Zrotation Yrotation
			JOINT lFoot
			{
				OFFSET 0.000000 -19.190928 -1.224953 
				CHANNELS 3 Xrotation Yrotation Zrotation
				End Site
				{
					OFFSET 0.000000 -2.449906 4.627600 
				}
			}
		}
	}
	JOINT rThigh
	{
		OFFSET -5.308129 -1.633274 1.361059 
		CHANNELS 3 Xrotation Zrotation Yrotation
		JOINT rShin
		{
			OFFSET 2.041588 -20.007561 0.000000 
			CHANNELS 3 Xrotation Zrotation Yrotation
			JOINT rFoot
			{
				OFFSET 0.000000 -19.190928 -1.224953 
				CHANNELS 3 Xrotation Yrotation Zrotation
				End Site
				{
					OFFSET 0.000000 -2.449906 4.627600 
				}
			}
		}
	}
}
MOTION
Frames: 8
Frame Time: 0.033333
-13.816713 48.655434 -77.738922 -4.223151 -7.236368 103.217903 16.612976 10.006847 -14.768147 -20.839844 0.000000 0.000000 -31.314383 -2.242566 -20.505424 -2.520860 -1.255023 0.218345 -4.754609 -0.109182 -0.002653 -46.755672 37.448307 -0.123042 -61.969501 -33.112392 23.044813 -7.107139 19.829136 7.376706 4.754609 0.109182 -0.002672 80.822693 -38.260162 -25.127056 53.519333 4.512587 28.255220 11.696224 -4.508229 35.682274 -40.550686 8.632318 -8.587405 75.070503 13.644610 -5.958641 -43.674473 6.951056 -12.560647 -23.873386 -27.570372 -16.687916 73.925652 11.738269 6.758791 -49.269196 6.927413 1.163592 
-13.794878 48.647812 -77.738411 -4.243207 -7.275141 103.203697 16.537197 9.985680 -14.739818 -20.839844 0.000000 0.000000 -31.270472 -2.282975 -20.590750 -2.520860 -1.255023 0.218345 -4.754609 -0.109182 -0.002653 -46.660728 37.521397 -0.097224 -61.893250 -33.138351 23.198122 -7.055292 19.895567 7.501074 4.754609 0.109182 -0.002672 80.744034 -38.266556 -25.126081 53.719021 4.530769 28.095919 11.686702 -4.200752 35.522377 -40.570499 8.680958 -8.583092 75.063301 13.622591 -5.946569 -43.676189 6.934532 -12.539851 -23.942738 -27.494337 -16.608572 73.948387 11.698373 6.727049 -49.320900 6.872556 1.188198 
-13.775072 48.640717 -77.731812 -4.223978 -7.324019 103.185249 16.458992 9.917666 -14.725098 -20.839844 0.000000 0.000000 -31.264343 -2.314212 -20.649284 -2.520860 -1.255023 0.218345 -4.754609 -0.109182 -0.002653 -46.507908 37.577881 -0.049141 -61.877335 -33.178474 23.229288 -6.928329 20.001511 7.543963 4.754609 0.109182 -0.002672 80.728691 -38.263752 -25.146955 54.124023 4.525460 27.984024 11.748839 -3.955008 35.481113 -40.594326 8.700956 -8.559798 75.064232 13.603436 -5.970705 -43.697720 6.937808 -12.512009 -23.991526 -27.484655 -16.561663 73.969994 11.659711 6.722414 -49.363411 6.809365 1.203587 
-13.760347 48.633102 -77.723190 -4.185055 -7.373083 103.164268 16.397318 9.827826 -14.735312 -20.839844 0.000000 0.000000 -31.277035 -2.345178 -20.686781 -2.520860 -1.255023 0.218345 -4.754609 -0.109182 -0.002653 -46.355515 37.606224 -0.036240 -61.919491 -33.199635 23.169336 -6.772027 20.127855 7.493587 4.754609 0.109182 -0.002672 80.764832 -38.269188 -25.215029 54.700703 4.491410 27.944611 11.867704 -3.819673 35.588303 -40.596966 8.680864 -8.544574 75.067268 13.584828 -5.937355 -43.706127 6.926043 -12.534563 -24.042376 -27.508286 -16.549795 74.000069 11.640328 6.743418 -49.403030 6.807089 1.204874 
-13.750200 48.624458 -77.715057 -4.136188 -7.412500 103.170563 16.362108 9.738069 -14.775188 -20.839844 0.000000 0.000000 -31.287994 -2.335063 -20.730101 -2.520860 -1.255023 0.218345 -4.754609 -0.109182 -0.002653 -46.230366 37.633377 -0.038272 -62.043007 -33.210560 23.046167 -6.690159 20.264122 7.421195 4.754609 0.109182 -0.002672 80.855286 -38.284603 -25.310734 55.426826 4.460303 27.963100 12.064176 -3.810944 35.803673 -40.640148 8.661670 -8.538200 75.099663 13.556660 -5.943480 -43.736015 6.914624 -12.531685 -24.080996 -27.566061 -16.562704 74.050659 11.611422 6.761675 -49.439953 6.846467 1.223229 
-13.742075 48.616348 -77.708458 -4.116767 -7.441903 103.179893 16.347162 9.679379 -14.814701 -20.839844 0.000000 0.000000 -31.278370 -2.267129 -20.820152 -2.520860 -1.255023 0.218345 -4.754609 -0.109182 -0.002653 -46.139481 37.669106 -0.069265 -62.266079 -33.227364 22.882942 -6.742147 20.371141 7.371583 4.754609 0.109182 -0.002672 80.953926 -38.310566 -25.398952 56.244904 4.432393 28.007624 12.310719 -3.904543 36.048958 -40.662502 8.642427 -8.522244 75.110344 13.547215 -5.949518 -43.747467 6.889272 -12.517683 -24.117315 -27.589594 -16.550179 74.100548 11.611306 6.771847 -49.471111 6.818615 1.222987 
-13.734972 48.609230 -77.702873 -4.117042 -7.471124 103.191742 16.341679 9.655331 -14.862044 -20.839844 0.000000 0.000000 -31.220091 -2.141677 -20.988312 -2.520860 -1.255023 0.218345 -4.754609 -0.109182 -0.002653 -46.048687 37.734112 -0.100236 -62.570885 -33.269474 22.708679 -6.896209 20.439110 7.350844 4.754609 0.109182 -0.002672 81.064377 -38.319035 -25.467833 57.043736 4.416784 28.049795 12.552994 -4.044837 36.265079 -40.708225 8.661674 -8.518828 75.119667 13.547090 -5.967498 -43.738892 6.872868 -12.508035 -24.157776 -27.582886 -16.534710 74.132156 11.571635 6.771087 -49.501827 6.795865 1.227715 
-13.729380 48.605171 -77.697800 -4.127168 -7.500254 103.204865 16.337563 9.637289 -14.899187 -20.839844 0.000000 0.000000 -31.116415 -1.981230 -21.286907 -2.520860 -1.255023 0.218345 -4.754609 -0.109182 -0.002653 -45.958031 37.828403 -0.131191 -62.944702 -33.318626 22.507383 -7.082702 20.458586 7.340999 4.754609 0.109182 -0.002672 81.143013 -38.264309 -25.470572 57.716007 4.426343 28.069662 12.679485 -4.177275 36.393429 -40.768818 8.710372 -8.524144 75.111389 13.524635 -5.984410 -43.729774 6.834702 -12.507342 -24.216898 -27.564173 -16.487417 74.152336 11.590923 6.750697 -49.534035 6.754639 1.214665 
